<?xml version="1.0" encoding="utf-8"?>
<!-- Generator: Adobe Illustrator 25.3.1, SVG Export Plug-In . SVG Version: 6.00 Build 0)  -->
<svg version="1.1" id="Layer_1" xmlns="http://www.w3.org/2000/svg" xmlns:xlink="http://www.w3.org/1999/xlink" x="0px" y="0px"
	 viewBox="0 0 1176 828" style="enable-background:new 0 0 1200 791.69;" xml:space="preserve">
<style type="text/css">
	.st0{fill:#15151E;}
	.st1{clip-path:url(#SVGID_2_);fill:url(#SVGID_3_);}
	.st2{fill:url(#SVGID_4_);}
	.st3{fill:#FFFFFF;}
	.st4{clip-path:url(#XMLID_9_);}
	.st5{clip-path:url(#SVGID_6_);fill:url(#SVGID_7_);}
	.st6{fill:#EF4123;}
	.st7{fill:#00853A;}
	.st8{fill:#B1B3B6;}
	.st9{fill:#ED1C24;}
	.st10{fill:#001722;}
	.st11{clip-path:url(#XMLID_12_);}
	.st12{clip-path:url(#XMLID_12_);fill:#FFFFFF;}
</style>
<path class="st3" d="M14.93,777.53h78.91v14.15H1.78v-35.38c0-7.97,2.45-15.31,6.58-21.23H0v-14.15h74.11v14.15H34.66
	c-10.89,0-19.73,9.5-19.73,21.23V777.53z M113.57,720.93h52.61v42.45h-52.61V720.93z M126.72,749.23h26.3v-14.15h-26.3V749.23z
	 M451.64,172.54v-14.45h5.41v-2.57h-13.78v2.57h5.39v14.45H451.64z M476.64,172.54v-17.02h-4.15l-4.58,13.33h-0.05l-4.7-13.33h-4.2
	v17.02h2.84V159.4h0.05l4.72,13.14h2.46l4.72-13.14h0.05v13.14H476.64z M408.28,172.54L544.85,36.33h-84.84L323.8,172.54H408.28z
	 M389.64,95.48H217.43c-45.73,0-52.88,3.5-73.62,24.24l-52.82,52.82h71.45l17-17c11.23-11.23,16.25-12.3,38.89-12.3h123.55
	L389.64,95.48z M137.48,113.93c23.81-23.09,33.47-26.59,78.87-26.59h181.07l52.1-51.01H209.47c-60.78,0-77.96,5.79-113.6,41.06
	L0,172.54h77.06L137.48,113.93z M895.46,121.27c0-4.3,3.48-7.77,7.78-7.76c4.28-0.01,7.76,3.46,7.76,7.76
	c0,4.29-3.48,7.76-7.76,7.76C898.94,129.02,895.46,125.55,895.46,121.27z M897.02,121.27c0,3.42,2.78,6.2,6.21,6.2
	c3.41,0,6.18-2.78,6.18-6.2c0-3.43-2.77-6.2-6.18-6.2C899.81,115.07,897.02,117.84,897.02,121.27z M901.94,125.15h-1.92v-8.36
	c0,0,3.34,0,4,0c0.93,0,2.55,0.55,2.55,2.33c0,1.12-0.62,1.89-1.25,2.13c0.69,0.45,1,0.97,1.14,1.86c0.13,0.91,0.54,1.56,0.77,2.04
	c-0.93,0-1.28,0-2.08,0c-0.39-0.89-0.49-1.49-0.68-2.11c-0.27-0.9-0.83-1.15-1.8-1.15c-0.61,0-0.7,0-0.72,0V125.15z M901.96,120.24
	c0,0,0.88,0,1.53,0c0.66,0,1.1-0.44,1.1-1.01c0-0.67-0.7-0.91-1.29-0.91c-0.6,0-1.35,0-1.35,0V120.24z M628.19,151.57
	c0-9.73,6.76-18.23,16.21-20.03c11.88-2.26,19.03,5.18,22.19,12.28c0.99,2.24,0.66,4.32-1.6,5.8c-1.26,0.84-5.27,2.91-9.77,4.58
	c-4.96,1.86-9.66,3.24-11.49,3.78c-1.22,0.36-1.61,0.78-1.13,2.13c2.23,6.25,9.79,5.58,12.44,4.73c2.81-0.89,5.67-3.08,7.87-5.29
	c1.55-1.64,6.35,1.54,4.64,4.22c-4.29,6.96-14.34,11.1-22.87,9.07C635.45,170.66,628.19,163.62,628.19,151.57z M641.52,150.08
	c0.78,2.13,2.37,1.9,5.71,0.76l3.39-1.12c1.29-0.43,2.72-1.01,3.52-1.99c0.55-0.67,0.66-2.46,0.16-4.15
	c-1.35-4.57-4.13-6.9-8.66-5.35C641.34,139.71,640.6,147.53,641.52,150.08z M753.22,160.12c2.22,6.25,9.79,5.58,12.44,4.73
	c2.81-0.89,5.67-3.08,7.87-5.29c1.55-1.64,6.35,1.54,4.64,4.22c-4.29,6.96-14.33,11.1-22.87,9.07c-9.24-2.18-16.49-9.23-16.49-21.27
	c0-9.73,6.76-18.23,16.21-20.03c11.88-2.26,19.03,5.18,22.19,12.28c0.99,2.24,0.66,4.32-1.6,5.8c-1.26,0.84-5.27,2.91-9.77,4.58
	c-4.96,1.86-9.66,3.24-11.49,3.78C753.13,158.35,752.74,158.77,753.22,160.12z M757.85,150.86c0.62-0.19,1.92-0.62,3.39-1.14
	c1.47-0.53,2.72-1.01,3.52-1.99c0.55-0.67,0.66-2.46,0.16-4.15c-0.72-2.44-1.85-4.24-3.44-5.15c-1.38-0.8-3.16-1.03-5.23-0.19
	c-1.84,0.74-2.89,2.21-3.59,4.1c-1.04,2.81-1.09,6.22-0.53,7.75C752.93,152.21,754.5,151.91,757.85,150.86z M823.14,151.57
	c0-9.73,6.76-18.23,16.21-20.03c11.89-2.26,19.03,5.18,22.19,12.28c0.99,2.24,0.65,4.32-1.6,5.8c-1.26,0.84-5.27,2.91-9.77,4.58
	c-4.96,1.86-9.66,3.24-11.49,3.78c-1.22,0.36-1.61,0.78-1.13,2.13c2.22,6.25,9.79,5.58,12.44,4.73c2.81-0.89,5.67-3.08,7.87-5.29
	c1.55-1.64,6.35,1.54,4.65,4.22c-4.29,6.96-14.34,11.1-22.87,9.07C830.4,170.66,823.14,163.62,823.14,151.57z M836.48,150.08
	c0.78,2.13,2.35,1.83,5.71,0.78c0.62-0.19,1.92-0.62,3.39-1.14c1.47-0.53,2.72-1.01,3.52-1.99c0.55-0.67,0.66-2.46,0.16-4.15
	c-0.72-2.44-1.85-4.24-3.44-5.15c-1.39-0.8-3.16-1.03-5.23-0.19c-1.84,0.74-2.89,2.21-3.59,4.1
	C835.97,145.14,835.92,148.55,836.48,150.08z M580.69,165.79L578,167c-0.48,0.22-0.62,0.58-0.62,1.11c0,0.13,0.01,0.22,0.04,0.4
	l0.32,3.06c0.14,0.83,0.71,0.97,1.81,0.97h19.51c1.1,0,1.67-0.14,1.81-0.97l0.32-3.06c0.03-0.18,0.04-0.27,0.04-0.4
	c0-0.53-0.14-0.89-0.62-1.11l-2.69-1.22c-1.24-0.56-1.75-2.33-1.75-3.94V148.1c0-0.66,0.53-1.19,1.19-1.19h10.57
	c0.66,0,1.19,0.53,1.19,1.19v13.74c0,1.61-0.51,3.38-1.75,3.94l-2.69,1.22c-0.48,0.22-0.62,0.58-0.62,1.11
	c0,0.13,0.01,0.22,0.04,0.4l0.32,3.06c0.14,0.83,0.71,0.97,1.81,0.97h19.51c1.1,0,1.67-0.14,1.81-0.97l0.32-3.06
	c0.03-0.18,0.04-0.27,0.04-0.4c0-0.53-0.14-0.89-0.62-1.11l-2.69-1.22c-1.24-0.56-1.75-2.33-1.75-3.94v-33.8
	c0-1.61,0.51-3.38,1.75-3.94l2.69-1.22c0.48-0.22,0.62-0.58,0.62-1.11c0-0.13-0.01-0.22-0.04-0.4l-0.32-2.3
	c-0.14-0.83-0.71-0.97-1.81-0.97h-18.6c-1.1,0-1.67,0.14-1.81,0.97l-0.32,2.3c-0.03,0.18-0.04,0.27-0.04,0.4
	c0,0.53,0.14,0.89,0.62,1.11l2.19,1.22c1.25,0.72,1.34,2.33,1.34,3.94v9.43c0,0.66-0.53,1.19-1.19,1.19h-10.57
	c-0.66,0-1.19-0.53-1.19-1.19v-9.43c0-1.61,0.08-3.22,1.34-3.94l2.2-1.22c0.48-0.22,0.62-0.58,0.62-1.11c0-0.13-0.01-0.22-0.04-0.4
	l-0.32-2.3c-0.14-0.83-0.71-0.97-1.81-0.97h-18.6c-1.1,0-1.67,0.14-1.81,0.97l-0.32,2.3c-0.03,0.18-0.04,0.27-0.04,0.4
	c0,0.53,0.14,0.89,0.62,1.11l2.69,1.22c1.24,0.56,1.75,2.33,1.75,3.94v33.8C582.44,163.46,581.94,165.23,580.69,165.79z
	 M678.96,130.6c3.89,0,7.04-3.04,7.04-6.8s-3.15-6.8-7.04-6.8c-3.89,0-7.04,3.04-7.04,6.8S675.07,130.6,678.96,130.6z
	 M669.52,171.61c0.14,0.8,0.68,0.93,1.74,0.93h17.46c1.06,0,1.6-0.13,1.74-0.93l0.3-3.05c0.03-0.17,0.02-0.25,0.02-0.38
	c0-0.51-0.14-0.83-0.58-1.06l-2.1-1.17c-1.16-0.56-1.68-2.23-1.68-3.78v-28.04c0-0.66-0.53-1.19-1.19-1.19h-13.18
	c-1.1,0-1.67,0.13-1.81,0.97l-0.32,2.3c-0.03,0.18-0.04,0.27-0.04,0.4c0,0.53,0.14,0.89,0.62,1.11l1.34,0.77
	c1.42,0.71,1.69,2.77,1.69,4.39v19.3c0,1.55-0.52,3.22-1.68,3.78l-2.1,1.17c-0.44,0.24-0.58,0.55-0.58,1.06c0,0.13,0,0.21,0.02,0.38
	L669.52,171.61z M694.87,133.9l-0.32,2.3c-0.03,0.18-0.04,0.27-0.04,0.4c0,0.53,0.14,0.89,0.62,1.11l1.34,0.77
	c1.42,0.71,1.69,2.77,1.69,4.39v19.3c0,1.55-0.52,3.22-1.68,3.78l-2.1,1.17c-0.44,0.24-0.58,0.55-0.58,1.06c0,0.13,0,0.21,0.02,0.38
	l0.3,3.05c0.14,0.8,0.68,0.93,1.74,0.93h17.46c1.06,0,1.6-0.13,1.74-0.93l0.3-3.05c0.03-0.17,0.02-0.25,0.02-0.38
	c0-0.51-0.14-0.83-0.58-1.06l-2.1-1.17c-1.16-0.56-1.68-2.23-1.68-3.78l0-15.37c0-3.99,1.94-6.22,4.62-6.55
	c1.77-0.22,4.05,0.87,4.05,4.01c0,2.62,0,14.7,0,20.56c0,5.86,4.98,8.1,8.88,8.1c4.13,0,7.67-1.9,9.25-5.2
	c0.5-1.05-0.11-1.84-0.63-2.41c-0.58-0.65-1.11-1.22-2.07-0.73c-0.94,0.49-1.93,1.42-2.5,1.11c-0.42-0.23-0.46-0.61-0.46-1.52
	c0-3.14,0-13.35,0-21.36c0-7.05-3.2-9.74-6.9-10.92c-4.27-1.36-9.44,0.86-12.07,2.1c-1.34,0.65-2.08,1.01-2.08,1.01l-0.41-0.87
	c-0.28-0.63-0.66-1.19-1.64-1.19h-12.42C695.58,132.93,695.01,133.07,694.87,133.9z M864.54,171.61c0.14,0.8,0.68,0.93,1.74,0.93
	h17.46c1.06,0,1.6-0.13,1.74-0.93l0.3-3.05c0.03-0.17,0.02-0.25,0.02-0.38c0-0.51-0.14-0.83-0.58-1.06l-2.1-1.17
	c-1.16-0.56-1.68-2.23-1.68-3.78l0-15.37c0-3.99,1.94-6.22,4.62-6.55c1.77-0.22,4.05,0.87,4.05,4.01c0,2.62,0,14.7,0,20.56
	c0,5.86,4.98,8.1,8.88,8.1c4.13,0,7.67-1.9,9.25-5.2c0.5-1.05-0.11-1.84-0.63-2.41c-0.58-0.65-1.11-1.22-2.07-0.73
	c-0.94,0.49-1.93,1.42-2.5,1.11c-0.42-0.23-0.46-0.61-0.46-1.52c0-3.14,0-13.35,0-21.36c0-7.05-3.2-9.74-6.9-10.92
	c-4.27-1.36-9.44,0.86-12.07,2.1c-1.34,0.65-2.08,1.01-2.08,1.01l-0.41-0.87c-0.28-0.63-0.66-1.19-1.64-1.19h-12.41
	c-1.1,0-1.67,0.13-1.81,0.97l-0.32,2.3c-0.03,0.18-0.04,0.27-0.04,0.4c0,0.53,0.14,0.89,0.62,1.11l1.34,0.77
	c1.42,0.71,1.69,2.77,1.69,4.39v19.3c0,1.55-0.52,3.22-1.68,3.78l-2.1,1.17c-0.44,0.24-0.58,0.55-0.58,1.06c0,0.13,0,0.21,0.02,0.38
	L864.54,171.61z M802.84,136.69l1.99,0.9c0.73,0.3,0.62,1.06,0.11,1.57c-0.51,0.51-1.83,1.66-2.63,2.35l-5.63,5.08v-26.23
	c0-1.25-1.01-2.25-2.25-2.25h-12.66c-1.06,0-1.6,0.13-1.74,0.93l-0.3,2.17c-0.03,0.17-0.02,0.26-0.02,0.38
	c0,0.51,0.14,0.83,0.58,1.07l2.1,1.17c1.2,0.61,1.68,2.23,1.68,3.78v34.55c0,1.55-0.52,3.22-1.68,3.78l-2.1,1.17
	c-0.44,0.24-0.58,0.55-0.58,1.06c0,0.13,0,0.21,0.02,0.38l0.3,3.05c0.14,0.8,0.68,0.93,1.74,0.93h17.46c1.06,0,1.6-0.13,1.74-0.93
	l0.3-3.05c0.03-0.17,0.02-0.25,0.02-0.38c0-0.51-0.14-0.83-0.58-1.06l-2.1-1.17c-1.2-0.61-1.93-2.23-1.93-3.78l0-4.53l3.32-3.18
	l8.84,16.09c0.81,1.47,0.95,1.99,2.75,1.99h10.54c1.06,0,1.6-0.13,1.74-0.93l0.3-3.05c0.03-0.17,0.02-0.25,0.02-0.38
	c0-0.51-0.14-0.83-0.58-1.06l-2.1-1.17c-1.16-0.56-2.29-1.76-3.22-3.25l-9.3-16.87l5.84-5.61c1.32-1.18,2.36-2.02,3.34-2.57
	c0.98-0.56,2.05-0.87,2.05-0.87c0.44-0.2,1.15-0.49,1.12-1.09c-0.01-0.12-0.01-0.2-0.03-0.36l-0.29-2.79
	c-0.13-0.76-0.65-0.88-1.65-0.88h-15.15c-1,0-1.52,0.12-1.65,0.88l-0.29,2.79c-0.02,0.16-0.03,0.24-0.03,0.36
	C802.27,136.17,802.4,136.49,802.84,136.69z M803.29,88.35c-0.07,1.55,0.88,2.59,2.45,2.59c1.71,0,2.75-1.04,2.75-2.75
	c0-0.99-0.39-1.94-1.43-2.19v-0.03c0.9-0.36,1.14-1.3,1.14-2.18c0-1.48-0.86-2.43-2.36-2.43c-1.7,0-2.23,1.24-2.18,2.74h1.61V83.9
	c0-0.41,0.08-0.96,0.62-0.96c0.54,0,0.64,0.54,0.64,0.95c0,1.03-0.42,1.23-1.42,1.23v1.61c1.05-0.04,1.4,0.25,1.4,1.3
	c0,0.55-0.05,1.31-0.8,1.31c-0.49,0-0.69-0.42-0.69-0.72l0.02-0.26H803.29z M796.63,90.79h1.92l3.5-9.29h-5.02v1.6h2.5L796.63,90.79
	z M791.04,85.78v-0.03c-0.82-0.28-1.26-1.08-1.26-1.96c0-1.36,0.9-2.44,2.33-2.44c1.4,0,2.32,1.07,2.32,2.44
	c0,0.89-0.41,1.68-1.27,1.97v0.02c1.17,0.37,1.61,1.29,1.61,2.46c0,1.53-1.1,2.7-2.65,2.7c-1.55,0-2.68-1.17-2.68-2.7
	C789.42,87.04,789.89,86.17,791.04,85.78z M791.55,83.77c0,0.34,0.05,1.05,0.52,1.05c0.57,0,0.57-0.71,0.57-1.04
	c0-0.35-0.07-0.99-0.57-0.99C791.62,82.79,791.55,83.43,791.55,83.77z M791.32,88.02c0,0.47,0.13,1.31,0.77,1.31
	c0.63,0,0.8-0.86,0.8-1.31c0-0.46-0.22-1.35-0.82-1.35C791.45,86.67,791.32,87.54,791.32,88.02z M786.9,90.79v-9.29h-2.67v1.6h0.89
	v7.7H786.9z M682.97,89.06h-2.08v-2.1h1.81v-1.72h-1.81v-2.02h2.06v-1.72h-4.06v9.29h4.08V89.06z M702.09,89.76
	c0-0.64-0.5-1.16-1.15-1.16c-0.66,0-1.18,0.52-1.18,1.16c0,0.65,0.52,1.18,1.18,1.18C701.59,90.94,702.09,90.41,702.09,89.76z
	 M693.2,83.22h1.58v7.57h2.03v-7.57h1.58v-1.72h-5.19V83.22z M687.8,86.83c0.56,0.39,1.19,0.65,1.19,1.35
	c0,0.62-0.51,1.02-1.18,1.02c-0.58,0-1.06-0.19-1.52-0.5v1.76c0.47,0.3,1.16,0.47,1.74,0.47c1.89,0,2.93-1.25,2.93-2.9
	c0-2.52-3.07-2.61-3.07-4.13c0-0.56,0.4-0.92,1.01-0.92c0.57,0,1.05,0.28,1.48,0.6V81.8c-0.57-0.28-1.14-0.44-1.8-0.44
	c-1.73,0-2.66,1.25-2.66,2.73C685.93,85.43,686.64,86.12,687.8,86.83z M777.2,97.34c-0.12,0.23-0.27,0.43-0.42,0.56
	c-0.34,0.29-0.67,0.52-0.67,0.52s-0.32,0.25-0.71,0.48c-0.47,0.28-1.39,0.42-2.14-0.07c0,0-1.18-0.73-3.11-2.03
	c-6.1-4.12-19.72-13.36-27.16-18.65c-7.44,5.29-21.06,14.53-27.16,18.65c-1.92,1.3-3.11,2.03-3.11,2.03
	c-0.75,0.49-1.67,0.35-2.14,0.07c-0.38-0.23-0.71-0.48-0.71-0.48s-0.33-0.23-0.67-0.52c-0.15-0.13-0.3-0.32-0.42-0.56
	c-0.12,0.44-0.18,0.69-0.18,0.69c-0.24,0.86,0.18,1.7,0.6,2.05c0.34,0.29,0.67,0.52,0.67,0.52s0.32,0.25,0.71,0.48
	c0.47,0.28,1.39,0.42,2.14-0.07c0,0,1.19-0.73,3.11-2.03c6.1-4.12,19.72-13.36,27.16-18.65c7.44,5.29,21.06,14.53,27.16,18.65
	c1.92,1.3,3.11,2.04,3.11,2.04c0.75,0.49,1.67,0.35,2.14,0.07c0.38-0.23,0.71-0.48,0.71-0.48s0.33-0.23,0.67-0.52
	c0.41-0.36,0.83-1.19,0.6-2.05C777.38,98.03,777.32,97.79,777.2,97.34z M767.05,60.66c0.18,0.56,0.36,1.16,0.55,1.77
	c7.42-5.53,19.92-15.24,25.58-19.66c1.83-1.43,2.9-2.33,2.9-2.33c0.7-0.56,0.85-1.48,0.73-2.01c-0.08-0.37-0.19-0.69-0.22-0.79
	c-0.12,0.23-0.28,0.44-0.5,0.62c0,0-1.07,0.9-2.9,2.33C787.38,45.12,774.39,55.22,767.05,60.66z M692.81,42.78
	c5.66,4.42,18.16,14.13,25.58,19.66c0.19-0.62,0.38-1.21,0.55-1.77c-7.34-5.44-20.33-15.54-26.13-20.07
	c-1.83-1.43-2.9-2.33-2.9-2.33c-0.22-0.18-0.38-0.39-0.5-0.61c-0.03,0.1-0.14,0.42-0.22,0.79c-0.12,0.53,0.03,1.46,0.73,2.01
	C689.91,40.45,690.98,41.35,692.81,42.78z M723.44,59.2L711.7,95.29c-0.02,0.06,0,0.13,0.05,0.17c0,0,0.09,0.08,0.18,0.14
	c0.09,0.07,0.19,0.13,0.19,0.13c0.05,0.04,0.13,0.04,0.18,0L743,73.41l30.69,22.32c0.05,0.04,0.12,0.04,0.18,0
	c0,0,0.1-0.06,0.19-0.13c0.09-0.07,0.18-0.14,0.18-0.14c0.06-0.04,0.08-0.11,0.06-0.17L762.55,59.2l30.71-22.29
	c0.05-0.04,0.08-0.11,0.06-0.17c0,0-0.03-0.11-0.06-0.22c-0.03-0.11-0.08-0.21-0.08-0.21c-0.02-0.07-0.08-0.11-0.14-0.11
	l-37.95,0.02l-11.71-36.1c-0.02-0.06-0.08-0.11-0.14-0.11c0,0-0.11-0.01-0.23-0.01c-0.11,0-0.23,0.01-0.23,0.01
	c-0.07,0-0.12,0.04-0.14,0.11l-11.71,36.1l-37.95-0.02c-0.06,0-0.12,0.04-0.15,0.1c0,0-0.05,0.11-0.08,0.22
	c-0.04,0.11-0.06,0.22-0.06,0.22c-0.02,0.06,0,0.13,0.06,0.17L723.44,59.2z M34.36,260.88h54.19v-25.11H34.36v-8.32h54.19v-30.4H0
	v99.12h34.36V260.88z M96.74,266.37c-2.75-6.13-4.12-12.78-4.12-19.96c0-7.1,1.37-13.71,4.12-19.84
	c2.75-6.13,6.44-11.39,11.09-15.78c4.65-4.39,10.14-7.84,16.48-10.33c6.34-2.49,13.06-3.74,20.15-3.74c7.1,0,13.82,1.25,20.16,3.74
	c6.34,2.49,11.83,5.94,16.48,10.33c4.65,4.39,8.34,9.66,11.09,15.78c2.74,6.13,4.12,12.74,4.12,19.84c0,7.18-1.37,13.84-4.12,19.96
	c-2.75,6.13-6.44,11.39-11.09,15.78c-4.65,4.39-10.14,7.82-16.48,10.27c-6.34,2.45-13.06,3.68-20.16,3.68
	c-7.1,0-13.82-1.23-20.15-3.68c-6.34-2.45-11.83-5.87-16.48-10.27C103.19,277.75,99.49,272.49,96.74,266.37z M125.45,246.4
	c0,5.58,1.75,10.2,5.26,13.88c3.51,3.68,8.09,5.51,13.75,5.51c5.66,0,10.27-1.84,13.82-5.51c3.55-3.68,5.32-8.3,5.32-13.88
	c0-5.58-1.77-10.2-5.32-13.88c-3.55-3.68-8.15-5.51-13.82-5.51c-5.66,0-10.25,1.84-13.75,5.51
	C127.21,236.2,125.45,240.83,125.45,246.4z M234.86,296.16H200.5v-99.12h67.8c5.64,0,10.62,0.9,14.94,2.71
	c4.31,1.81,7.91,4.16,10.77,7.07c2.83,2.86,5.04,6.28,6.48,10.04c1.43,3.67,2.17,7.57,2.18,11.5c0,3.62-0.6,7.22-1.78,10.64
	c-1.16,3.43-2.95,6.61-5.29,9.38c-2.33,2.78-5.26,5.13-8.79,7.07c-3.53,1.94-7.58,3.22-12.16,3.83l28.02,36.87h-40.71l-27.09-37.53
	V296.16z M233.54,236.69h27.56c3.39-0.01,6.14-2.76,6.15-6.15c-0.01-3.39-2.76-6.14-6.15-6.15h-27.56V236.69z M377.32,220.21
	c-1.59-4.84-3.9-8.99-6.94-12.42c-3.04-3.44-6.83-6.1-11.37-7.99c-4.54-1.89-8.44-2.84-14.34-2.84c-5.55,0-10.64,0.95-15.27,2.84
	c-4.62,1.89-8.61,4.49-11.96,7.8c-3.35,3.3-5.95,7.23-7.8,11.76c-1.85,4.54-2.77,9.41-2.77,14.6v62.12h34.36v-61.32
	c0.01-2.63,2.13-4.75,4.76-4.76c2.63,0.01,4.75,2.13,4.76,4.76v26.34c0,5.08,0.77,9.77,2.31,14.06c1.54,4.29,3.77,7.98,6.68,11.06
	c2.91,3.08,6.5,5.5,10.75,7.25c1.92,0.79,3.91,1.39,5.94,1.8c1.68,0.55,3.44,0.82,6.56,0.82c0.33,0,0.67,0,1-0.01
	c0.33,0.01,0.66,0.01,0.99,0.01c5.41,0,10.27-0.87,14.56-2.62s7.91-4.14,10.87-7.19c2.96-3.04,5.21-6.73,6.75-11.06
	c1.54-4.33,2.31-9.04,2.31-14.12v-27.66c0-1.81,1.88-3.29,3.7-3.43c1.89,0.13,4.49,1.62,4.49,3.43v62.64h31.72v-62.12
	c0-5.2-0.9-10.07-2.71-14.6c-1.81-4.54-4.34-8.46-7.6-11.76c-3.26-3.3-7.11-5.9-11.56-7.8c-4.45-1.89-9.32-2.84-14.6-2.84
	c-6.26,0-10.42,0.97-15.13,2.91c-4.72,1.94-8.64,4.65-11.76,8.13c-3.13,3.48-5.49,7.62-7.07,12.42c-1.59,4.8-2.38,10.02-2.38,15.66
	v23.53c0,1.9-1.54,3.43-3.44,3.43c-1.9,0-3.44-1.54-3.44-3.43v-23.53C379.7,230.35,378.91,225.06,377.32,220.21z M534.37,246.25
	c0,0.05,0,0.1,0,0.16c0,5.58-1.77,10.2-5.32,13.88c-3.55,3.68-8.15,5.51-13.82,5.51c-5.66,0-10.25-1.84-13.75-5.51
	c-3.51-3.68-5.26-8.3-5.26-13.88c0-0.05,0-0.1,0-0.16h0v-49.28h-32.83v49.28c0,0.05,0,0.1,0,0.16c0,7.18,1.37,13.84,4.12,19.96
	c2.74,6.13,6.44,11.39,11.09,15.78c4.65,4.39,10.14,7.82,16.48,10.27c6.34,2.45,13.06,3.68,20.15,3.68s13.82-1.23,20.15-3.68
	c6.34-2.45,11.83-5.87,16.48-10.27c4.65-4.39,8.34-9.65,11.09-15.78c2.75-6.12,4.12-12.78,4.12-19.96c0-0.05,0-0.1,0-0.16h0v-49.28
	h-32.7V246.25z M658.49,265.77h-52.86v-68.72h-34.36v99.12h87.23V265.77z M691.72,223.35c3.52-8.72,7.95-15.29,13.28-19.69
	c5.33-4.4,11.61-6.61,18.83-6.61c7.22,0,13.5,2.2,18.83,6.61c5.33,4.41,9.71,10.97,13.15,19.69l28.66,72.82h-36.32l-7.41-19.69
	h-35.02l-7.29,19.69h-35.77L691.72,223.35z M715.24,247.27h15.73l-7.93-18.63L715.24,247.27z M817.54,263.93v32.25h79.3v-32.25
	h-22.47v-40.44c0-7.75-2.47-14.1-7.4-19.03c-4.94-4.93-11.28-7.4-19.03-7.4h-30.4v31.72h22.47v35.16H817.54z M34.36,386.16h36.87
	V420h34.36v-99.12H71.24v33.04H34.36v-33.04H0V420h34.36V386.16z M201.5,351.27v-30.4h-91.85V420h91.85v-30.4h-56.83v-8.46h55.51
	l0.03-21.41h-55.54v-8.46H201.5z M240.04,320.88h-34.36V420h34.36V320.88z M335.42,419.94c2.97,0,5.93-0.51,8.72-1.52
	c2.74-0.96,5.24-2.49,7.33-4.49c2.07-1.98,3.75-4.49,5.02-7.53c1.28-3.04,1.92-6.59,1.92-10.64v-74.93h-34.36v50.29l-26.57-29.94
	c-1.01-1.14-2.21-2.33-3.5-3.53v0.02l-3.37-3.89c-3.88-4.49-7.56-7.78-11.04-9.85c-3.48-2.07-7.6-3.1-12.36-3.11
	c-2.97,0-5.93,0.51-8.72,1.52c-2.74,0.96-5.24,2.49-7.34,4.49c-2.07,1.98-3.75,4.49-5.02,7.53c-1.28,3.04-1.92,6.59-1.92,10.64
	v74.93h34.36v-51.08l16.91,19.06l16.53,19.07c3.88,4.49,7.56,7.78,11.04,9.85C326.54,418.91,330.66,419.94,335.42,419.94z
	 M454.44,351.27v-30.4h-91.85V420h91.85v-30.4h-56.83v-8.46h55.51l0.03-21.41h-55.54v-8.46H454.44z M524.17,320.88l-18.9,26.83
	c-2.29,3.26-4.54,6.67-6.74,10.24c-2.2,3.57-3.3,7.73-3.31,12.49c0,4.76,1.1,8.92,3.31,12.49c2.2,3.57,4.45,6.98,6.74,10.24
	l18.9,26.83h42.29l-35.55-49.56l35.55-49.56H524.17z M458.62,420h34.36v-99.12h-34.36V420z M662.44,389.6h-56.83v-8.46h55.51
	l0.03-21.41h-55.54v-8.46h56.83v-30.4h-91.85V420h91.85V389.6z M700.97,368.86l16.91,19.06l16.53,19.07
	c3.88,4.49,7.56,7.78,11.04,9.85c3.48,2.07,7.6,3.1,12.36,3.11c2.97,0,5.93-0.51,8.72-1.52c2.74-0.96,5.24-2.49,7.33-4.49
	c2.07-1.98,3.75-4.49,5.02-7.53c1.28-3.04,1.92-6.59,1.92-10.64v-74.93h-34.36v50.29l-26.57-29.94c-1.01-1.14-2.21-2.33-3.5-3.53
	v0.02l-3.37-3.89c-3.88-4.49-7.56-7.78-11.03-9.85c-3.48-2.07-7.6-3.1-12.36-3.11c-2.97,0-5.93,0.51-8.72,1.52
	c-2.74,0.96-5.24,2.49-7.34,4.49c-2.07,1.98-3.75,4.49-5.02,7.53c-1.28,3.04-1.92,6.59-1.92,10.64v74.93h34.36V368.86z
	 M47.24,543.83H0.06V444.7h45.86c8.54,0,16.41,1.23,23.59,3.7c7.18,2.47,13.28,5.88,18.3,10.24c4.97,4.29,8.98,9.58,11.76,15.53
	c2.82,5.99,4.23,12.47,4.23,19.43c0,6.96-1.25,13.5-3.77,19.63c-2.46,6.06-6.21,11.51-10.97,15.99c-4.8,4.54-10.73,8.11-17.77,10.71
	C64.25,542.53,56.23,543.83,47.24,543.83z M44.34,513.43c3.2,0.02,6.39-0.32,9.51-0.99c3-0.66,5.59-1.76,7.8-3.3
	c2.21-1.56,4.03-3.62,5.29-6.01c1.32-2.46,1.98-5.51,1.98-9.12c0-3.17-0.66-5.95-1.98-8.32c-1.3-2.35-3.1-4.38-5.29-5.95
	c-2.2-1.59-4.8-2.76-7.8-3.5c-3.11-0.76-6.31-1.14-9.51-1.12h-9.91v38.33H44.34z M211.63,444.64h-32.7v49.28c0,0.05,0,0.1,0,0.16
	c0,5.58-1.77,10.2-5.32,13.88c-3.55,3.68-8.15,5.51-13.82,5.51c-5.66,0-10.25-1.84-13.75-5.51c-3.51-3.68-5.26-8.3-5.26-13.88
	c0-0.05,0-0.1,0-0.16h0v-49.28h-32.83v49.28c0,0.05,0,0.1,0,0.16c0,7.18,1.37,13.84,4.12,19.96c2.75,6.13,6.44,11.39,11.09,15.78
	c4.65,4.39,10.14,7.82,16.48,10.27c6.34,2.45,13.06,3.68,20.15,3.68s13.82-1.23,20.15-3.68c6.34-2.45,11.83-5.87,16.48-10.27
	c4.65-4.39,8.34-9.65,11.09-15.78c2.75-6.12,4.12-12.78,4.12-19.96c0-0.05,0-0.1,0-0.16h0V444.64z M286.53,543.82v-68.72h36.21
	v-30.4H215.82v30.4h36.34v68.72H286.53z M353.54,539.93c6.26,2.6,13.04,3.9,20.35,3.9h41.37v-30.4h-32.78
	c-6.61,0-12.07-1.56-16.39-4.69c-4.32-3.13-6.48-7.95-6.48-14.47c0-6.61,2.16-11.45,6.48-14.54c4.32-3.08,9.78-4.63,16.39-4.63
	h32.78v-30.4h-41.37c-7.31,0-14.1,1.32-20.35,3.96c-6.26,2.65-11.65,6.19-16.19,10.64c-4.54,4.45-8.11,9.69-10.71,15.73
	c-2.6,6.04-3.9,12.45-3.9,19.23c0,6.79,1.3,13.2,3.9,19.23c2.6,6.04,6.17,11.3,10.71,15.79
	C341.89,533.78,347.28,537.33,353.54,539.93z M490.69,477.74h-36.87V444.7h-34.36v99.12h34.36v-33.83h36.87v33.83h34.36V444.7
	h-34.36V477.74z M201.02,619.85c2.33-2.77,4.13-5.95,5.29-9.38c1.18-3.42,1.78-7.02,1.78-10.64c-0.01-3.94-0.75-7.83-2.18-11.5
	c-1.44-3.76-3.64-7.18-6.48-10.04c-2.86-2.91-6.46-5.26-10.77-7.07c-4.32-1.81-9.3-2.71-14.93-2.71H92.71v0.03H53.85
	c-7.93,0-15.2,1.32-21.81,3.96c-6.61,2.65-12.27,6.19-16.98,10.64c-4.71,4.44-8.46,9.79-11.03,15.73
	c-2.64,6.04-3.97,12.45-3.97,19.23c0,6.79,1.32,13.2,3.97,19.23c2.58,5.95,6.34,11.32,11.03,15.79c4.71,4.5,10.37,8.04,16.98,10.64
	c6.61,2.6,13.88,3.9,21.81,3.9h47.98v-58.94H67.47v28.55h-8.33c-6.61,0-12.07-1.67-16.39-5.02c-4.32-3.35-6.48-8.06-6.48-14.14
	c0-6.08,2.16-10.79,6.48-14.14c4.32-3.35,9.78-5.02,16.39-5.02h42.69v-0.03h65.95c2.69,0,4.89,3.52,4.89,6.21
	c0,2.69-2.2,6.21-4.89,6.21h-40.44c-6.61,0-11.83,2.05-15.66,6.15c-3.83,4.1-5.75,9.05-5.75,14.87v35.29h34.36v-37.53l27.09,37.53
	h40.71l-28.02-36.87c4.58-0.62,8.63-1.89,12.16-3.83C195.76,624.98,198.68,622.62,201.02,619.85z M248.05,667.66h-35.77l29.05-72.82
	c3.52-8.72,7.95-15.29,13.28-19.69c5.33-4.4,11.61-6.61,18.83-6.61c7.22,0,13.5,2.2,18.83,6.61c5.33,4.41,9.71,10.97,13.15,19.69
	l28.66,72.82h-36.32l-7.41-19.69h-35.02L248.05,667.66z M264.86,618.75h15.73l-7.93-18.63L264.86,618.75z M372.5,616.52l16.91,19.06
	l16.53,19.07c3.88,4.49,7.56,7.78,11.03,9.85c3.48,2.07,7.6,3.1,12.36,3.11c2.97,0,5.93-0.51,8.72-1.52
	c2.74-0.96,5.24-2.49,7.33-4.49c2.07-1.98,3.75-4.49,5.02-7.53c1.28-3.04,1.92-6.59,1.92-10.64v-74.93h-34.36v50.29l-26.57-29.94
	c-1.01-1.14-2.21-2.33-3.5-3.53v0.02l-3.37-3.89c-3.88-4.49-7.56-7.78-11.04-9.85c-3.48-2.07-7.6-3.1-12.36-3.11
	c-2.97,0-5.93,0.51-8.72,1.52c-2.74,0.96-5.24,2.49-7.34,4.49c-2.07,1.98-3.75,4.49-5.02,7.53c-1.28,3.04-1.92,6.59-1.92,10.64
	v74.93h34.36V616.52z M556.03,598.01c2.82,5.99,4.23,12.47,4.23,19.43c0,6.96-1.25,13.5-3.77,19.63
	c-2.47,6.06-6.21,11.51-10.97,15.99c-4.8,4.54-10.73,8.11-17.77,10.71c-7.05,2.6-15.07,3.9-24.05,3.9h-47.18v-99.12h45.86
	c8.54,0,16.41,1.23,23.59,3.7c7.18,2.47,13.28,5.88,18.3,10.24C549.23,586.77,553.24,592.06,556.03,598.01z M525.36,617.83
	c0-3.17-0.66-5.95-1.98-8.32c-1.3-2.35-3.1-4.38-5.29-5.95c-2.21-1.59-4.8-2.76-7.8-3.5c-3.11-0.76-6.31-1.14-9.52-1.12h-9.91v38.33
	h9.91c3.2,0.02,6.39-0.32,9.52-0.99c2.99-0.66,5.59-1.76,7.8-3.3c2.21-1.56,4.03-3.62,5.29-6.01
	C524.7,624.48,525.36,621.44,525.36,617.83z M659.48,568.53c5.64,0,10.53,0.9,14.67,2.71c4.14,1.81,7.58,4.21,10.31,7.2
	c2.71,2.96,4.78,6.45,6.08,10.24c1.31,3.76,1.98,7.71,1.98,11.7c-0.01,4.05-0.68,8.06-1.98,11.89c-1.29,3.92-3.36,7.54-6.08,10.64
	c-2.73,3.13-6.17,5.66-10.31,7.6c-4.14,1.94-9.03,2.91-14.67,2.91h-33.04v34.23H593.4v-99.12H659.48z M658.82,600.97
	c-0.01-3.32-2.7-6-6.01-6.01h-26.36v12.03h26.36C656.12,606.97,658.81,604.29,658.82,600.97z M782.95,626.94
	c-3.52,1.94-7.58,3.22-12.16,3.83l28.02,36.87H758.1l-27.09-37.53v37.53h-34.36v-99.12h67.8c5.64,0,10.62,0.9,14.93,2.71
	c4.32,1.81,7.91,4.16,10.77,7.07c2.83,2.86,5.04,6.28,6.48,10.04c1.43,3.67,2.17,7.57,2.18,11.5c0,3.62-0.61,7.22-1.78,10.64
	c-1.16,3.43-2.95,6.61-5.29,9.38C789.4,622.65,786.47,625,782.95,626.94z M763.39,602.03c-0.01-3.39-2.76-6.14-6.15-6.15h-27.56
	v12.29h27.56C760.63,608.16,763.38,605.42,763.39,602.03z M803.03,667.66h34.36v-99.12h-34.36V667.66z M885.32,568.53h-43.75
	l39.91,49.03l-39.91,50.09h43.08l18.77-24.05l19.56,24.05H967l-40.31-48.9l39.91-50.22h-42.69l-19.03,23.92L885.32,568.53z
	 M1125.7,259.22v383.87c0,47.87-38.81,86.68-86.68,86.68H454.66l-2.58,2.58h599.32c47.87,0,86.68-38.81,86.68-86.68V256.64
	c0-47.87-38.81-86.68-86.68-86.68H946.63l-2.58,2.58h94.97C1086.89,172.54,1125.7,211.35,1125.7,259.22z M1146.35,259.66v383
	c0,59.27-48.05,107.33-107.33,107.33H434.45l-2.58,2.58h619.53c59.27,0,107.33-48.05,107.33-107.33V257.08
	c0-59.27-48.05-107.33-107.33-107.33h-84.57l-2.58,2.58h74.76C1098.3,152.33,1146.35,200.38,1146.35,259.66z M1166.97,261.36v379.6
	c0,70.66-57.28,127.95-127.95,127.95H415.53l-2.58,2.58h638.45c70.66,0,127.95-57.28,127.95-127.95V258.78
	c0-70.66-57.28-127.95-127.95-127.95h-65.65l-2.58,2.58h55.85C1109.68,133.41,1166.97,190.69,1166.97,261.36z M1200,259.22v383.87
	c0,82.07-66.53,148.6-148.6,148.6H392.77v0h-21.06v0h-87.13h-5.5h-99.75v-7.08c-5.5,4.44-12.33,7.07-19.73,7.07h-39.46
	c-10.76,0-20.31-5.56-26.3-14.15c-2.87-4.11-4.93-8.92-5.92-14.15H28.08v-14.15h39.46c10.9,0,19.73-9.5,19.73-21.23
	c0-11.72-8.83-21.23-19.73-21.23H0v-14.15h67.54c10.76,0,20.31,5.56,26.3,14.15c6-8.59,15.55-14.15,26.3-14.15h16.71l220.06,0
	c19.51,0,35.38,15.87,35.38,35.38c0,19.51-15.87,35.38-35.38,35.38l-49.53,0v-14.16h49.53c11.72,0,21.23-9.5,21.23-21.22
	c0-11.73-9.51-21.23-21.23-21.23h-72.33c0,0,4.39,5.8,6.23,14.15h73.18v14.15h-49.53c-11.72,0-21.23,9.5-21.23,21.23v21.23h92.63
	l0,0h21.05l-11.57,11.57h643.67c82.07,0,148.6-66.53,148.6-148.6V261.8c0-82.07-66.53-148.6-148.6-148.6h-35.64l2.58-2.58h45.44
	C1133.47,110.62,1200,177.15,1200,259.22z M179.33,728c0-11.72-8.83-21.23-19.73-21.23h-22.74h-16.71
	c-10.9,0-19.73,9.51-19.73,21.23v28.3c0,11.72,8.83,21.23,19.73,21.23h39.46c10.89,0,19.73-9.5,19.73-21.23V728z M279.08,755.04
	c-6.16,5.2-14.12,8.35-22.8,8.35h-7.77l0,0h-41.76v-14.16h49.53c11.72,0,21.23-9.5,21.23-21.22c0-11.73-9.5-21.23-21.23-21.23h-7.44
	h-62.93c2.87,4.11,4.93,8.92,5.91,14.15v0h0.06v0h71.47v14.15h-49.53c-11.72,0-21.23,9.5-21.23,21.23v21.23h56.48v0h30v-15.94v-3.14
	V755.04z"/>
</svg>
